<?xml version="1.0" encoding="UTF-8" standalone="no"?>
<svg
   xmlns:dc="http://purl.org/dc/elements/1.1/"
   xmlns:cc="http://creativecommons.org/ns#"
   xmlns:rdf="http://www.w3.org/1999/02/22-rdf-syntax-ns#"
   xmlns:svg="http://www.w3.org/2000/svg"
   xmlns="http://www.w3.org/2000/svg"
   xmlns:sodipodi="http://sodipodi.sourceforge.net/DTD/sodipodi-0.dtd"
   xmlns:inkscape="http://www.inkscape.org/namespaces/inkscape"
   viewBox="0 0 32 32"
   version="1.1"
   id="svg6"
   sodipodi:docname="cancel_blur.svg"
   inkscape:version="1.0 (4035a4fb49, 2020-05-01)">
  <metadata
     id="metadata10">
    <rdf:RDF>
      <cc:Work
         rdf:about="">
        <dc:format>image/svg+xml</dc:format>
        <dc:type
           rdf:resource="http://purl.org/dc/dcmitype/StillImage" />
        <dc:title></dc:title>
      </cc:Work>
    </rdf:RDF>
  </metadata>
  <sodipodi:namedview
     inkscape:pagecheckerboard="true"
     inkscape:document-rotation="0"
     pagecolor="#3d3d3d"
     bordercolor="#666666"
     borderopacity="1"
     objecttolerance="10"
     gridtolerance="10"
     guidetolerance="10"
     inkscape:pageopacity="1"
     inkscape:pageshadow="2"
     inkscape:window-width="1920"
     inkscape:window-height="1021"
     id="namedview8"
     showgrid="false"
     inkscape:zoom="13.140625"
     inkscape:cx="15.41688"
     inkscape:cy="18.948181"
     inkscape:window-x="0"
     inkscape:window-y="0"
     inkscape:window-maximized="1"
     inkscape:current-layer="svg6" />
  <defs
     id="defs3051">
    <style
       type="text/css"
       id="current-color-scheme">
      .ColorScheme-Text {
        color:#232629;
      }
      </style>
    <filter
       height="1.32856"
       y="-0.16427999"
       width="1.32856"
       x="-0.16428001"
       id="filter1146"
       style="color-interpolation-filters:sRGB"
       inkscape:collect="always">
      <feGaussianBlur
         id="feGaussianBlur1148"
         stdDeviation="1.6427988"
         inkscape:collect="always" />
    </filter>
  </defs>
  <path
     style="fill:#ffffff;fill-opacity:1;stroke:none"
     d="M16 4A12 12 0 0 0 7.886719 7.179688L7.885 7.178A12 12 0 0 0 7.847656 7.214844 12 12 0 0 0 4 16 12 12 0 0 0 16 28 12 12 0 0 0 24.11328 24.820312L24.12 24.822A12 12 0 0 0 24.15234 24.785156 12 12 0 0 0 28 16 12 12 0 0 0 16 4M16 5A11 11 0 0 1 27 16 11 11 0 0 1 24.11523 23.408203L8.592 7.885A11 11 0 0 1 16 5M7.885 8.592L23.408 24.12A11 11 0 0 1 16 27 11 11 0 0 1 5 16 11 11 0 0 1 7.884766 8.591797"
     class="ColorScheme-Text"
     id="path4" />
  <g
     inkscape:label="Layer 1"
     id="layer1"
     inkscape:groupmode="layer" />
  <path
     id="path4-6"
     class="ColorScheme-Text"
     d="M 16.000234,4.000203 A 12,12 0 0 0 7.886953,7.179891 l -0.0017,-0.0017 a 12,12 0 0 0 -0.03734,0.03684 12,12 0 0 0 -3.847656,8.785156 12,12 0 0 0 12,12 12,12 0 0 0 8.11328,-3.179688 l 0.0067,0.0017 a 12,12 0 0 0 0.03234,-0.03684 12,12 0 0 0 3.84766,-8.785156 12,12 0 0 0 -12,-12 m 0,1 a 11,11 0 0 1 11,11 11,11 0 0 1 -2.88477,7.408203 L 8.592234,7.885203 a 11,11 0 0 1 7.408,-2.885 m -8.115,3.592 15.523,15.528 a 11,11 0 0 1 -7.408,2.88 11,11 0 0 1 -11,-11 A 11,11 0 0 1 7.885,8.592"
     style="color:#232629;fill:#ffffff;fill-opacity:1;stroke:none;filter:url(#filter1146)" />
</svg>
