<?xml version="1.0" encoding="UTF-8" standalone="no"?>
<svg
   xmlns:dc="http://purl.org/dc/elements/1.1/"
   xmlns:cc="http://creativecommons.org/ns#"
   xmlns:rdf="http://www.w3.org/1999/02/22-rdf-syntax-ns#"
   xmlns:svg="http://www.w3.org/2000/svg"
   xmlns="http://www.w3.org/2000/svg"
   xmlns:sodipodi="http://sodipodi.sourceforge.net/DTD/sodipodi-0.dtd"
   xmlns:inkscape="http://www.inkscape.org/namespaces/inkscape"
   version="1.1"
   viewBox="0 0 32 32"
   id="svg47"
   sodipodi:docname="restart_blur.svg"
   inkscape:version="1.0 (4035a4fb49, 2020-05-01)">
  <metadata
     id="metadata51">
    <rdf:RDF>
      <cc:Work
         rdf:about="">
        <dc:format>image/svg+xml</dc:format>
        <dc:type
           rdf:resource="http://purl.org/dc/dcmitype/StillImage" />
        <dc:title></dc:title>
      </cc:Work>
    </rdf:RDF>
  </metadata>
  <sodipodi:namedview
     inkscape:pagecheckerboard="true"
     inkscape:document-rotation="0"
     pagecolor="#ffffff"
     bordercolor="#666666"
     borderopacity="1"
     objecttolerance="10"
     gridtolerance="10"
     guidetolerance="10"
     inkscape:pageopacity="0"
     inkscape:pageshadow="2"
     inkscape:window-width="1920"
     inkscape:window-height="1021"
     id="namedview49"
     showgrid="false"
     inkscape:zoom="9.2918251"
     inkscape:cx="2.1017597"
     inkscape:cy="13.197364"
     inkscape:window-x="0"
     inkscape:window-y="0"
     inkscape:window-maximized="1"
     inkscape:current-layer="svg47" />
  <defs
     id="defs43">
    <style
       type="text/css"
       id="current-color-scheme">
            .ColorScheme-Text {
                color:#232629;
            }
        </style>
    <filter
       height="1.32856"
       y="-0.16428"
       width="1.32856"
       x="-0.16428"
       id="filter846"
       style="color-interpolation-filters:sRGB"
       inkscape:collect="always">
      <feGaussianBlur
         id="feGaussianBlur848"
         stdDeviation="1.6428"
         inkscape:collect="always" />
    </filter>
  </defs>
  <path
     style="fill:#ffffff;fill-opacity:1;stroke:none"
     class="ColorScheme-Text"
     d="M 4,16 A 12,12 0 0 1 5.671875,9.916016 L 11.050781,15.292969 10.339844,16 5.935547,11.595703 A 11,11 0 0 0 5,16 11,11 0 0 0 16,27 11,11 0 0 0 21.351562,25.595703 l 0.728516,0.732422 A 12,12 0 0 1 16,28 12,12 0 0 1 4,16 Z M 9.916016,5.671875 A 12,12 0 0 1 16,4 12,12 0 0 1 28,16 12,12 0 0 1 26.328125,22.083984 L 20.949219,16.707031 21.65625,16 26.060547,20.40625 A 11,11 0 0 0 27,16 11,11 0 0 0 16,5 11,11 0 0 0 10.648438,6.404297 Z"
     id="path45" />
  <path
     id="path45-3"
     d="M 3.267578,15.267578 A 12,12 0 0 1 4.939453,9.183594 l 5.378906,5.376953 -0.710937,0.707031 -4.404297,-4.404297 a 11,11 0 0 0 -0.935547,4.404297 11,11 0 0 0 11,11 11,11 0 0 0 5.351562,-1.404297 l 0.728516,0.732422 a 12,12 0 0 1 -6.080078,1.671875 12,12 0 0 1 -12,-12 z M 9.183594,4.939453 a 12,12 0 0 1 6.083984,-1.671875 12,12 0 0 1 12,12 12,12 0 0 1 -1.671875,6.083984 l -5.378906,-5.376953 0.707031,-0.707031 4.404297,4.40625 a 11,11 0 0 0 0.939453,-4.40625 11,11 0 0 0 -11,-11 11,11 0 0 0 -5.351562,1.404297 z"
     class="ColorScheme-Text"
     style="color:#232629;fill:#ffffff;fill-opacity:1;stroke:none;filter:url(#filter846)" />
</svg>
